<?xml version="1.0" standalone="no"?>
<!DOCTYPE svg PUBLIC "-//W3C//DTD SVG 20010904//EN"
 "http://www.w3.org/TR/2001/REC-SVG-20010904/DTD/svg10.dtd">
<svg version="1.0" xmlns="http://www.w3.org/2000/svg"
 width="926.000000pt" height="1079.000000pt" viewBox="0 0 926.000000 1079.000000"
 preserveAspectRatio="xMidYMid meet">

<g transform="translate(0.000000,1079.000000) scale(0.100000,-0.100000)"
fill="#000000" stroke="none">
<path d="M6205 10225 c-98 -19 -132 -29 -199 -60 -32 -15 -84 -30 -115 -34
-203 -24 -625 -392 -909 -794 -134 -190 -338 -543 -367 -636 -7 -23 -6 -24 31
-17 22 3 138 18 259 33 196 24 257 26 560 27 l341 1 37 55 c88 131 136 186
329 381 224 227 332 329 427 404 35 27 69 54 75 60 6 5 27 22 48 37 20 15 42
34 50 41 21 21 338 255 351 260 22 7 -10 33 -113 91 -54 31 -100 56 -103 56
-2 0 -35 14 -73 32 -126 58 -182 69 -379 73 -126 3 -201 0 -250 -10z"/>
<path d="M4340 9946 c-19 -7 -40 -11 -46 -9 -10 4 -124 -23 -203 -48 -165 -53
-314 -129 -398 -204 -62 -56 -130 -128 -160 -172 -20 -29 -51 -62 -70 -73 -37
-22 -48 -44 -150 -300 -135 -339 -227 -683 -257 -963 l-6 -59 47 27 c145 83
217 122 303 162 125 59 366 155 474 190 57 19 86 33 86 43 0 34 92 383 128
490 102 297 233 586 315 694 58 75 129 149 190 198 l49 38 -134 -1 c-81 0
-147 -5 -168 -13z"/>
<path d="M2370 8640 c-14 -11 -28 -20 -33 -20 -4 0 -31 -16 -60 -37 -50 -35
-74 -53 -153 -117 -20 -17 -69 -75 -110 -130 -40 -56 -82 -112 -92 -126 -31
-41 -99 -182 -123 -255 -12 -38 -34 -81 -50 -98 -16 -16 -29 -30 -29 -31 0 -1
-11 -55 -24 -121 -14 -66 -30 -176 -36 -245 -14 -164 -11 -534 6 -685 12 -102
54 -326 70 -375 3 -8 22 38 44 102 86 258 188 469 341 708 l67 105 6 185 c13
388 70 738 170 1044 20 60 35 110 33 112 -1 1 -13 -6 -27 -16z"/>
<path d="M5575 8479 c-209 -217 -363 -501 -444 -822 -16 -59 -30 -109 -33
-112 -3 -3 -31 4 -64 16 -96 33 -290 77 -424 95 -156 22 -513 25 -650 5 -302
-42 -545 -117 -797 -247 -562 -289 -1063 -791 -1285 -1287 -64 -142 -96 -316
-123 -668 -5 -57 -12 -82 -26 -98 -28 -30 -80 -28 -119 6 -32 27 -32 27 -28
106 4 63 2 83 -12 100 -46 59 -180 285 -240 406 -120 239 -186 430 -231 671
-23 121 -14 329 17 433 9 29 -87 23 -172 -12 -155 -63 -183 -84 -338 -255 -54
-60 -143 -197 -177 -273 -17 -37 -48 -105 -70 -150 -21 -45 -39 -89 -39 -98 0
-9 -5 -25 -11 -36 -35 -66 -72 -270 -90 -496 -15 -194 10 -452 61 -634 42
-148 59 -206 91 -304 38 -119 53 -280 25 -269 -14 5 -16 -6 -15 -87 1 -136 32
-421 63 -591 16 -89 23 -103 40 -89 8 7 16 4 24 -10 10 -15 10 -71 2 -257 -6
-130 -14 -250 -19 -267 -5 -16 -12 -61 -16 -100 -3 -38 -10 -83 -15 -100 -5
-16 -19 -75 -30 -130 -12 -55 -28 -118 -36 -140 -8 -23 -14 -46 -14 -53 0 -8
-15 -47 -34 -88 -19 -41 -32 -74 -28 -74 11 0 177 173 198 206 10 16 37 54 59
84 23 30 53 76 68 103 16 26 32 47 36 47 13 0 58 -69 81 -125 30 -71 86 -179
131 -254 22 -34 39 -65 39 -68 0 -18 153 -250 256 -388 25 -33 54 -73 64 -90
41 -63 163 -197 345 -380 261 -262 392 -368 709 -577 60 -40 113 -68 128 -68
17 0 58 51 140 170 254 370 402 741 507 1267 l36 181 47 39 c49 40 143 152
161 190 14 32 23 29 52 -21 66 -113 217 -213 358 -236 71 -12 274 -9 296 4 6
4 -2 23 -24 52 -78 101 -57 219 69 399 24 33 68 95 99 139 l57 78 -25 30 c-60
71 -70 104 -70 229 l0 115 -63 40 c-89 55 -185 152 -219 221 -25 53 -28 68
-28 163 0 95 3 110 28 157 63 121 144 174 273 181 72 4 89 1 137 -21 69 -31
126 -83 194 -174 60 -81 100 -109 219 -152 71 -26 115 -37 223 -55 l34 -6 -46
49 c-180 192 -254 498 -149 614 28 31 83 54 158 66 218 33 399 140 456 268 23
51 30 150 15 211 -9 32 -8 32 28 32 47 0 168 28 223 51 117 50 199 147 226
268 20 86 20 95 2 88 -8 -3 -132 -81 -275 -172 l-260 -166 -78 59 c-387 294
-794 306 -1087 32 -145 -136 -184 -295 -140 -568 l7 -42 -46 20 c-187 83 -445
22 -611 -144 -42 -42 -85 -97 -104 -133 -65 -123 -87 -281 -61 -430 6 -35 10
-66 7 -68 -2 -2 -35 5 -73 16 -103 30 -248 23 -328 -14 -120 -55 -197 -145
-233 -271 -10 -36 -22 -66 -25 -66 -7 0 -402 466 -407 480 -2 4 165 122 370
261 510 346 820 556 1098 745 221 151 302 206 770 522 102 69 275 187 385 262
110 75 290 197 400 272 110 74 274 186 365 248 91 62 249 168 352 237 l187
125 248 -72 c136 -40 385 -112 553 -161 168 -49 313 -92 322 -96 13 -6 -59
-57 -303 -213 -176 -112 -322 -207 -324 -210 -2 -3 21 -44 51 -90 104 -162
197 -374 235 -535 7 -27 16 -169 20 -315 4 -146 9 -276 10 -289 4 -23 -1 -26
-61 -42 -36 -10 -83 -18 -105 -19 -27 0 -54 -10 -83 -30 -53 -36 -212 -98
-363 -142 -128 -38 -123 -45 33 -47 89 -1 98 -3 115 -25 49 -62 131 -82 200
-50 40 20 80 69 89 110 5 23 17 34 56 53 28 13 75 44 105 68 30 24 58 43 63
41 4 -2 39 -50 77 -108 93 -141 208 -277 274 -323 30 -21 79 -56 110 -77 99
-68 140 -156 117 -247 -13 -53 -92 -143 -234 -264 -83 -72 -84 -73 -66 -93 71
-78 119 -197 105 -256 -11 -46 -53 -119 -89 -155 -20 -20 -32 -40 -28 -44 5
-4 30 -24 56 -44 52 -41 88 -106 88 -158 0 -42 -33 -115 -66 -150 l-26 -27 20
-38 c54 -107 77 -256 52 -344 -5 -19 -33 -65 -60 -102 -149 -197 -443 -277
-918 -248 -161 9 -216 14 -393 36 -49 6 -63 3 -115 -22 -75 -37 -188 -149
-274 -272 -289 -413 -441 -761 -539 -1236 -17 -81 -31 -149 -31 -151 0 -13
116 3 405 55 560 101 1087 321 1549 645 451 317 824 715 1121 1200 79 128 213
392 280 549 160 379 265 810 315 1296 14 136 8 706 -9 845 -19 154 -70 423
-111 580 -182 706 -561 1367 -1080 1884 -394 393 -906 732 -1380 915 -52 20
-126 50 -165 66 -45 19 -97 32 -145 36 l-75 6 -110 -113z"/>
<path d="M6440 5479 c-120 -19 -444 -214 -660 -397 -78 -66 -6 -40 251 91 305
156 379 187 448 187 59 0 95 -26 146 -105 37 -58 69 -74 113 -53 14 7 33 24
40 38 30 54 -33 167 -118 210 -30 15 -141 43 -159 39 -3 -1 -31 -5 -61 -10z"/>
</g>
</svg>
